<mxfile host="app.diagrams.net" modified="2022-11-01T15:10:44.931Z" agent="5.0 (Windows NT 10.0; Win64; x64) AppleWebKit/537.36 (KHTML, like Gecko) Chrome/107.0.0.0 Safari/537.36 Edg/107.0.1418.26" etag="htzGOpBpKc-jOh9mhUTn" version="20.5.1" type="github">
  <diagram id="H6NBRajvenNbEnST42FU" name="第 1 页">
    <mxGraphModel dx="1550" dy="859" grid="1" gridSize="10" guides="1" tooltips="1" connect="1" arrows="1" fold="1" page="1" pageScale="1" pageWidth="827" pageHeight="1169" math="0" shadow="0">
      <root>
        <mxCell id="0" />
        <mxCell id="1" parent="0" />
        <mxCell id="jSIXeCrTQ8pV_IT-RAW2-3" value="&lt;p style=&quot;margin:0px;margin-top:4px;text-align:center;&quot;&gt;&lt;i&gt;&amp;lt;&amp;lt;Interface&amp;gt;&amp;gt;&lt;/i&gt;&lt;br&gt;&lt;b&gt;Strategy&lt;/b&gt;&lt;/p&gt;&lt;hr size=&quot;1&quot;&gt;&lt;p style=&quot;margin:0px;margin-left:4px;&quot;&gt;&lt;br&gt;&lt;/p&gt;&lt;hr size=&quot;1&quot;&gt;&lt;p style=&quot;margin:0px;margin-left:4px;&quot;&gt;+ execute()&lt;/p&gt;" style="verticalAlign=top;align=left;overflow=fill;fontSize=12;fontFamily=Helvetica;html=1;" vertex="1" parent="1">
          <mxGeometry x="454" y="352" width="190" height="100" as="geometry" />
        </mxCell>
        <mxCell id="jSIXeCrTQ8pV_IT-RAW2-5" value="OtherStrategy" style="swimlane;fontStyle=1;align=center;verticalAlign=top;childLayout=stackLayout;horizontal=1;startSize=26;horizontalStack=0;resizeParent=1;resizeParentMax=0;resizeLast=0;collapsible=1;marginBottom=0;" vertex="1" parent="1">
          <mxGeometry x="529" y="542" width="160" height="86" as="geometry" />
        </mxCell>
        <mxCell id="jSIXeCrTQ8pV_IT-RAW2-6" value="..." style="text;strokeColor=none;fillColor=none;align=left;verticalAlign=top;spacingLeft=4;spacingRight=4;overflow=hidden;rotatable=0;points=[[0,0.5],[1,0.5]];portConstraint=eastwest;" vertex="1" parent="jSIXeCrTQ8pV_IT-RAW2-5">
          <mxGeometry y="26" width="160" height="26" as="geometry" />
        </mxCell>
        <mxCell id="jSIXeCrTQ8pV_IT-RAW2-7" value="" style="line;strokeWidth=1;fillColor=none;align=left;verticalAlign=middle;spacingTop=-1;spacingLeft=3;spacingRight=3;rotatable=0;labelPosition=right;points=[];portConstraint=eastwest;strokeColor=inherit;" vertex="1" parent="jSIXeCrTQ8pV_IT-RAW2-5">
          <mxGeometry y="52" width="160" height="8" as="geometry" />
        </mxCell>
        <mxCell id="jSIXeCrTQ8pV_IT-RAW2-8" value="+ execute()" style="text;strokeColor=none;fillColor=none;align=left;verticalAlign=top;spacingLeft=4;spacingRight=4;overflow=hidden;rotatable=0;points=[[0,0.5],[1,0.5]];portConstraint=eastwest;" vertex="1" parent="jSIXeCrTQ8pV_IT-RAW2-5">
          <mxGeometry y="60" width="160" height="26" as="geometry" />
        </mxCell>
        <mxCell id="jSIXeCrTQ8pV_IT-RAW2-9" value="ConcreteStrategy" style="swimlane;fontStyle=1;align=center;verticalAlign=top;childLayout=stackLayout;horizontal=1;startSize=26;horizontalStack=0;resizeParent=1;resizeParentMax=0;resizeLast=0;collapsible=1;marginBottom=0;" vertex="1" parent="1">
          <mxGeometry x="469" y="532" width="160" height="86" as="geometry" />
        </mxCell>
        <mxCell id="jSIXeCrTQ8pV_IT-RAW2-10" value="..." style="text;strokeColor=none;fillColor=none;align=left;verticalAlign=top;spacingLeft=4;spacingRight=4;overflow=hidden;rotatable=0;points=[[0,0.5],[1,0.5]];portConstraint=eastwest;" vertex="1" parent="jSIXeCrTQ8pV_IT-RAW2-9">
          <mxGeometry y="26" width="160" height="26" as="geometry" />
        </mxCell>
        <mxCell id="jSIXeCrTQ8pV_IT-RAW2-11" value="" style="line;strokeWidth=1;fillColor=none;align=left;verticalAlign=middle;spacingTop=-1;spacingLeft=3;spacingRight=3;rotatable=0;labelPosition=right;points=[];portConstraint=eastwest;strokeColor=inherit;" vertex="1" parent="jSIXeCrTQ8pV_IT-RAW2-9">
          <mxGeometry y="52" width="160" height="8" as="geometry" />
        </mxCell>
        <mxCell id="jSIXeCrTQ8pV_IT-RAW2-12" value="+ execute()" style="text;strokeColor=none;fillColor=none;align=left;verticalAlign=top;spacingLeft=4;spacingRight=4;overflow=hidden;rotatable=0;points=[[0,0.5],[1,0.5]];portConstraint=eastwest;" vertex="1" parent="jSIXeCrTQ8pV_IT-RAW2-9">
          <mxGeometry y="60" width="160" height="26" as="geometry" />
        </mxCell>
        <mxCell id="jSIXeCrTQ8pV_IT-RAW2-13" value="" style="endArrow=block;dashed=1;endFill=0;endSize=12;html=1;rounded=0;exitX=0.5;exitY=0;exitDx=0;exitDy=0;entryX=0.5;entryY=1;entryDx=0;entryDy=0;" edge="1" parent="1" source="jSIXeCrTQ8pV_IT-RAW2-9" target="jSIXeCrTQ8pV_IT-RAW2-3">
          <mxGeometry width="160" relative="1" as="geometry">
            <mxPoint x="599" y="462" as="sourcePoint" />
            <mxPoint x="759" y="462" as="targetPoint" />
          </mxGeometry>
        </mxCell>
        <mxCell id="jSIXeCrTQ8pV_IT-RAW2-14" value="Context" style="swimlane;fontStyle=1;align=center;verticalAlign=top;childLayout=stackLayout;horizontal=1;startSize=26;horizontalStack=0;resizeParent=1;resizeParentMax=0;resizeLast=0;collapsible=1;marginBottom=0;" vertex="1" parent="1">
          <mxGeometry x="139" y="340" width="160" height="112" as="geometry" />
        </mxCell>
        <mxCell id="jSIXeCrTQ8pV_IT-RAW2-15" value="- strategy: Strategy" style="text;strokeColor=none;fillColor=none;align=left;verticalAlign=top;spacingLeft=4;spacingRight=4;overflow=hidden;rotatable=0;points=[[0,0.5],[1,0.5]];portConstraint=eastwest;" vertex="1" parent="jSIXeCrTQ8pV_IT-RAW2-14">
          <mxGeometry y="26" width="160" height="26" as="geometry" />
        </mxCell>
        <mxCell id="jSIXeCrTQ8pV_IT-RAW2-16" value="" style="line;strokeWidth=1;fillColor=none;align=left;verticalAlign=middle;spacingTop=-1;spacingLeft=3;spacingRight=3;rotatable=0;labelPosition=right;points=[];portConstraint=eastwest;strokeColor=inherit;" vertex="1" parent="jSIXeCrTQ8pV_IT-RAW2-14">
          <mxGeometry y="52" width="160" height="8" as="geometry" />
        </mxCell>
        <mxCell id="jSIXeCrTQ8pV_IT-RAW2-17" value="+ setStrategy(s: Strategy)" style="text;strokeColor=none;fillColor=none;align=left;verticalAlign=top;spacingLeft=4;spacingRight=4;overflow=hidden;rotatable=0;points=[[0,0.5],[1,0.5]];portConstraint=eastwest;" vertex="1" parent="jSIXeCrTQ8pV_IT-RAW2-14">
          <mxGeometry y="60" width="160" height="26" as="geometry" />
        </mxCell>
        <mxCell id="jSIXeCrTQ8pV_IT-RAW2-18" value="+ doSomething()" style="text;strokeColor=none;fillColor=none;align=left;verticalAlign=top;spacingLeft=4;spacingRight=4;overflow=hidden;rotatable=0;points=[[0,0.5],[1,0.5]];portConstraint=eastwest;" vertex="1" parent="jSIXeCrTQ8pV_IT-RAW2-14">
          <mxGeometry y="86" width="160" height="26" as="geometry" />
        </mxCell>
        <mxCell id="jSIXeCrTQ8pV_IT-RAW2-19" value="" style="endArrow=open;endFill=1;endSize=12;html=1;rounded=0;exitX=0.992;exitY=0.038;exitDx=0;exitDy=0;exitPerimeter=0;entryX=0;entryY=0.5;entryDx=0;entryDy=0;" edge="1" parent="1" source="jSIXeCrTQ8pV_IT-RAW2-17" target="jSIXeCrTQ8pV_IT-RAW2-3">
          <mxGeometry width="160" relative="1" as="geometry">
            <mxPoint x="299" y="402" as="sourcePoint" />
            <mxPoint x="459" y="402" as="targetPoint" />
          </mxGeometry>
        </mxCell>
        <mxCell id="jSIXeCrTQ8pV_IT-RAW2-20" value="Client" style="html=1;fontStyle=1" vertex="1" parent="1">
          <mxGeometry x="164" y="571" width="110" height="50" as="geometry" />
        </mxCell>
        <mxCell id="jSIXeCrTQ8pV_IT-RAW2-21" value="" style="endArrow=open;endFill=1;endSize=12;html=1;rounded=0;exitX=0.5;exitY=0;exitDx=0;exitDy=0;" edge="1" parent="1" source="jSIXeCrTQ8pV_IT-RAW2-20" target="jSIXeCrTQ8pV_IT-RAW2-18">
          <mxGeometry width="160" relative="1" as="geometry">
            <mxPoint x="229" y="522" as="sourcePoint" />
            <mxPoint x="389" y="522" as="targetPoint" />
          </mxGeometry>
        </mxCell>
        <mxCell id="jSIXeCrTQ8pV_IT-RAW2-22" value="Use" style="endArrow=open;endSize=12;dashed=1;html=1;rounded=0;exitX=1;exitY=0.5;exitDx=0;exitDy=0;entryX=-0.017;entryY=0.177;entryDx=0;entryDy=0;entryPerimeter=0;" edge="1" parent="1" source="jSIXeCrTQ8pV_IT-RAW2-20" target="jSIXeCrTQ8pV_IT-RAW2-12">
          <mxGeometry width="160" relative="1" as="geometry">
            <mxPoint x="279" y="732" as="sourcePoint" />
            <mxPoint x="439" y="732" as="targetPoint" />
          </mxGeometry>
        </mxCell>
        <mxCell id="jSIXeCrTQ8pV_IT-RAW2-23" value="" style="endArrow=none;dashed=1;html=1;dashPattern=1 3;strokeWidth=2;rounded=0;entryX=0;entryY=0.5;entryDx=0;entryDy=0;exitX=0.5;exitY=0;exitDx=0;exitDy=0;exitPerimeter=0;" edge="1" parent="1" source="jSIXeCrTQ8pV_IT-RAW2-24" target="jSIXeCrTQ8pV_IT-RAW2-18">
          <mxGeometry width="50" height="50" relative="1" as="geometry">
            <mxPoint x="100" y="470" as="sourcePoint" />
            <mxPoint x="140" y="480" as="targetPoint" />
          </mxGeometry>
        </mxCell>
        <mxCell id="jSIXeCrTQ8pV_IT-RAW2-24" value="// 相关操作&lt;br&gt;.....&lt;br&gt;strategy.execute()" style="shape=note;whiteSpace=wrap;html=1;backgroundOutline=1;darkOpacity=0.05;align=left;fillColor=#6d8764;fontColor=#ffffff;strokeColor=#3A5431;" vertex="1" parent="1">
          <mxGeometry x="20" y="482" width="150" height="50" as="geometry" />
        </mxCell>
        <mxCell id="jSIXeCrTQ8pV_IT-RAW2-26" value="" style="endArrow=none;dashed=1;html=1;dashPattern=1 3;strokeWidth=2;rounded=0;entryX=0.75;entryY=1;entryDx=0;entryDy=0;" edge="1" parent="1" source="jSIXeCrTQ8pV_IT-RAW2-27" target="jSIXeCrTQ8pV_IT-RAW2-20">
          <mxGeometry width="50" height="50" relative="1" as="geometry">
            <mxPoint x="310" y="680" as="sourcePoint" />
            <mxPoint x="360" y="690" as="targetPoint" />
          </mxGeometry>
        </mxCell>
        <mxCell id="jSIXeCrTQ8pV_IT-RAW2-27" value="Context c = new Context();&lt;br&gt;Strategy s = new ConcreteStrategy();&lt;br&gt;c.setStrategy(s);&lt;br&gt;c.doSomething();" style="shape=note;whiteSpace=wrap;html=1;backgroundOutline=1;darkOpacity=0.05;align=left;fillColor=#6d8764;fontColor=#ffffff;strokeColor=#3A5431;" vertex="1" parent="1">
          <mxGeometry x="310" y="680" width="250" height="90" as="geometry" />
        </mxCell>
      </root>
    </mxGraphModel>
  </diagram>
</mxfile>
